<svg xmlns="http://www.w3.org/2000/svg" viewBox="0 0 256 256" width="256" height="256" role="img" aria-label="Sun conjunction North Node" color="#4a4439">
<title>Sun conjunction North Node</title>
<rect width="256" height="256" fill="#faf8f3"/>
<line x1="84" y1="92" x2="102" y2="92" stroke="#c8932f" stroke-width="3" stroke-linecap="round"/>
<line x1="154" y1="92" x2="172" y2="92" stroke="#c8932f" stroke-width="3" stroke-linecap="round"/>
<circle cx="124" cy="97" r="9" fill="none" stroke="#c8932f" stroke-width="3.2"/>
<line x1="130.36" y1="90.64" x2="141.68" y2="79.32" stroke="#c8932f" stroke-width="3.2" stroke-linecap="round"/>
<path fill="currentColor" transform="translate(24.21 114.64) scale(0.03027 -0.03027)" d="M1666 748Q1666 437 1447.0 218.5Q1228 0 917 0Q608 0 389.0 218.5Q170 437 170 748Q170 942 270.5 1122.5Q371 1303 551.0 1399.5Q731 1496 917 1496Q1106 1496 1286.0 1399.5Q1466 1303 1566.0 1123.5Q1666 944 1666 748ZM243 748Q243 468 440.0 271.5Q637 75 917.0 75.0Q1197 75 1394.0 271.5Q1591 468 1591 748Q1591 925 1501.0 1086.0Q1411 1247 1249.0 1334.0Q1087 1421 917.0 1421.0Q747 1421 585.0 1334.0Q423 1247 333.0 1086.0Q243 925 243 748ZM1105 748Q1105 670 1050.5 615.5Q996 561 918 561Q841 561 786.0 615.5Q731 670 731 748Q731 797 756.0 842.0Q781 887 826.0 911.0Q871 935 918.0 935.0Q965 935 1010.0 911.0Q1055 887 1080.0 842.0Q1105 797 1105 748Z"/>
<path fill="currentColor" transform="translate(176.45 114.54) scale(0.03027 -0.03027)" d="M1206 312Q1206 239 1257.5 187.5Q1309 136 1383 136Q1456 136 1508.0 187.5Q1560 239 1560 312Q1560 386 1508.5 437.5Q1457 489 1383.0 489.0Q1309 489 1257.5 437.5Q1206 386 1206 312ZM436 489Q363 489 311.0 437.5Q259 386 259 312Q259 239 311.0 187.0Q363 135 436 135Q510 135 561.5 187.0Q613 239 613 312Q613 386 561.5 437.5Q510 489 436 489ZM1557 574Q1582 557 1604 535Q1695 443 1695 313Q1695 184 1604.0 92.5Q1513 1 1383 1Q1254 1 1163.0 92.5Q1072 184 1072 313Q1072 443 1162 535Q1243 616 1354 625Q1475 740 1475 893Q1475 1073 1307.5 1199.5Q1140 1326 900.0 1326.0Q660 1326 492.5 1199.5Q325 1073 325 893Q325 740 446 626Q571 622 658 535Q748 443 748.0 313.0Q748 183 657.0 91.5Q566 0 436 0Q308 0 216.5 91.5Q125 183 125.0 313.0Q125 443 216 535Q234 552 253 567Q131 709 131 891Q131 1139 355.0 1314.0Q579 1489 900 1489Q1224 1489 1448.0 1314.0Q1672 1139 1672 891Q1672 714 1557 574Z"/>
<text x="128" y="190" text-anchor="middle" font-family="Inter, 'Segoe UI', system-ui, -apple-system, sans-serif" font-size="17" font-weight="600" fill="#221f1a">Sun conjunction North Node</text>
<text x="128" y="234" text-anchor="middle" font-family="Inter, 'Segoe UI', system-ui, -apple-system, sans-serif" font-size="12" fill="#6b6457">aspect  ·  0°</text>
</svg>
